# xmcd CD database file
#
# Track frame offsets:
#	150
#	33049
#	56054
#	73025
#	89131
#	115233
#	140111
#	160363
#	184455
#
# Disc length: 2716 seconds
#
# Revision: 0
# Processed by: cddbd v1.4PL0 Copyright (c) Steve Scherf et al.
# Submitted via: CDex 1.50Beta7
#
DISCID=890a9a09
DTITLE=Sade - Love Deluxe
DYEAR=1900
DGENRE=Blues
TTITLE0=No ordinary love
TTITLE1=Feel no pain
TTITLE2=I couln' t love you more
TTITLE3=Like a Tattoo
TTITLE4=Kiss of life
TTITLE5=Cherish the day
TTITLE6=Pearls
TTITLE7=Bullet proof soul
TTITLE8=Mermaid
EXTD=
EXTT0=
EXTT1=
EXTT2=
EXTT3=
EXTT4=
EXTT5=
EXTT6=
EXTT7=
EXTT8=
PLAYORDER=
